<svg xmlns="http://www.w3.org/2000/svg" xmlns:xlink="http://www.w3.org/1999/xlink" width="500" zoomAndPan="magnify" viewBox="0 0 375 149.999998" height="200" preserveAspectRatio="xMidYMid meet" version="1.0"><defs><clipPath id="id1"><path d="M 0 0 L 313.5 0 L 313.5 27.824219 L 0 27.824219 Z M 0 0 " clip-rule="nonzero"/></clipPath><clipPath id="id2"><path d="M 0 27.722656 L 313.5 27.722656 L 313.5 150 L 0 150 Z M 0 27.722656 " clip-rule="nonzero"/></clipPath><clipPath id="id3"><path d="M 72.308594 0 L 375 0 L 375 27.824219 L 72.308594 27.824219 Z M 72.308594 0 " clip-rule="nonzero"/></clipPath><clipPath id="id4"><path d="M 72.308594 27.722656 L 375 27.722656 L 375 150 L 72.308594 150 Z M 72.308594 27.722656 " clip-rule="nonzero"/></clipPath></defs><g clip-path="url(#id1)"><path fill="#cddbff" d="M 0.00390625 -85.382812 L 313.496094 -85.382812 L 313.496094 27.824219 L 0.00390625 27.824219 L 0.00390625 -85.382812 " fill-opacity="1" fill-rule="nonzero"/></g><g clip-path="url(#id2)"><path fill="#eff3ff" d="M 0 27.722656 L 313.5 27.722656 L 313.5 228.015625 L 0 228.015625 L 0 27.722656 " fill-opacity="1" fill-rule="nonzero"/></g><g clip-path="url(#id3)"><path fill="#cddbff" d="M 72.3125 -85.382812 L 385.804688 -85.382812 L 385.804688 27.824219 L 72.3125 27.824219 L 72.3125 -85.382812 " fill-opacity="1" fill-rule="nonzero"/></g><g clip-path="url(#id4)"><path fill="#eff3ff" d="M 72.308594 27.722656 L 385.804688 27.722656 L 385.804688 228.015625 L 72.308594 228.015625 L 72.308594 27.722656 " fill-opacity="1" fill-rule="nonzero"/></g></svg>